<svg width="32" height="32" viewBox="0 0 32 32" fill="none" xmlns="http://www.w3.org/2000/svg">
<path d="M26.84 11.6133L20.2666 5.03996C19.6 4.37329 18.6933 4 17.7466 4H11.8933C7.47998 4 3.89331 7.58667 3.89331 12V20C3.89331 24.4133 7.47998 28 11.8933 28H19.8933C24.3066 28 27.8933 24.4133 27.8933 20V14.1466C27.8933 13.2 27.52 12.2933 26.8533 11.6266L26.84 11.6133ZM19.5466 8.09334L23.8 12.3467H21.68C20.5066 12.3467 19.5466 11.4533 19.5466 10.3467V8.09334ZM19.88 25.32H11.88C8.9333 25.32 6.54663 22.9333 6.54663 19.9867V11.9867C6.54663 9.03999 8.9333 6.65332 11.88 6.65332H16.8666V10.3467C16.8666 12.92 19.0266 15.0133 21.6666 15.0133H25.2V19.9867C25.2 22.9333 22.8133 25.32 19.8666 25.32H19.88Z" fill="#676A71"/>
</svg>
