<svg width="32" height="32" viewBox="0 0 32 32" fill="none" xmlns="http://www.w3.org/2000/svg">
<path d="M16 18.6533C14.9867 18.6533 14.1733 19.4666 14.1733 20.48C14.1733 21.4933 14.9867 22.3066 16 22.3066C17.0133 22.3066 17.8267 21.4933 17.8267 20.48C17.8267 19.4666 17.0133 18.6533 16 18.6533Z" fill="#676A71"/>
<path d="M21.5999 12H21.3333V8.00002C21.3333 5.05335 18.9466 2.66669 15.9999 2.66669C13.0533 2.66669 10.6666 5.05335 10.6666 8.00002V12H10.3999C7.5999 12 5.33325 14.28 5.33325 17.0667V24.2534C5.33325 27.0534 7.61324 29.32 10.3999 29.32H21.5866C24.3866 29.32 26.6532 27.04 26.6532 24.2534V17.0667C26.6532 14.2667 24.3733 12 21.5866 12H21.5999ZM13.3333 8.00002C13.3333 6.53335 14.5333 5.33335 15.9999 5.33335C17.4666 5.33335 18.6666 6.53335 18.6666 8.00002V12H13.3333V8.00002ZM23.9999 24.2667C23.9999 25.5867 22.9199 26.6667 21.5999 26.6667H10.4132C9.09325 26.6667 8.01326 25.5867 8.01326 24.2667V17.08C8.01326 15.76 9.09325 14.68 10.4132 14.68H21.5999C22.9199 14.68 23.9999 15.76 23.9999 17.08V24.2667Z" fill="#676A71"/>
</svg>
