<svg width="32" height="32" viewBox="0 0 32 32" fill="none" xmlns="http://www.w3.org/2000/svg">
<path d="M16.0001 14.6667C19.3067 14.6667 22.0001 11.9733 22.0001 8.66666C22.0001 5.35999 19.3067 2.66666 16.0001 2.66666C12.6934 2.66666 10.0001 5.35999 10.0001 8.66666C10.0001 11.9733 12.6934 14.6667 16.0001 14.6667ZM16.0001 5.33332C17.8401 5.33332 19.3334 6.82666 19.3334 8.66666C19.3334 10.5067 17.8401 12 16.0001 12C14.1601 12 12.6667 10.5067 12.6667 8.66666C12.6667 6.82666 14.1601 5.33332 16.0001 5.33332Z" fill="#009CB4"/>
<path d="M20.0001 16H12.0001C9.05341 16 6.66675 18.3867 6.66675 21.3333V22.6667C6.66675 25.6133 9.05341 28 12.0001 28H20.0001C22.9467 28 25.3334 25.6133 25.3334 22.6667V21.3333C25.3334 18.3867 22.9467 16 20.0001 16ZM22.6667 22.6667C22.6667 24.1333 21.4667 25.3333 20.0001 25.3333H12.0001C10.5334 25.3333 9.33341 24.1333 9.33341 22.6667V21.3333C9.33341 19.8667 10.5334 18.6667 12.0001 18.6667H20.0001C21.4667 18.6667 22.6667 19.8667 22.6667 21.3333V22.6667Z" fill="#009CB4"/>
</svg>
